<svg width="80" height="43" viewBox="0 0 80 43" fill="none" xmlns="http://www.w3.org/2000/svg">
<path d="M12.3995 13.3306H12.4022C14.4006 13.3306 15.9985 14.906 15.9985 16.8223V16.8249C15.9985 18.7412 14.4006 20.3167 12.4022 20.3167H12.3995C10.4011 20.3167 8.80322 18.7412 8.80322 16.8249V16.8223C8.80322 14.906 10.4011 13.3306 12.3995 13.3306Z" fill="#AFB1B8" stroke="white"/>
<path d="M19.8672 27.8073C19.6998 27.8327 19.5513 27.8541 19.4233 27.872V11.555C19.4296 8.62871 20.6253 5.82136 22.7531 3.74834C24.8811 1.67501 27.7681 0.505592 30.7827 0.500001C33.7963 0.506926 36.682 1.67693 38.8089 3.75012C40.9357 5.82311 42.1307 8.62991 42.1368 11.5555V11.557C42.1368 11.5571 42.1368 11.5571 42.1368 11.5571C42.1355 18.3802 36.4878 22.4822 30.5893 24.9022C27.6625 26.1029 24.7302 26.8641 22.5258 27.3251C21.4247 27.5553 20.5077 27.7102 19.8672 27.8073Z" fill="#AFB1B8" stroke="white"/>
<path d="M7.74923 36.541C7.40366 36.4762 7.07261 36.3446 6.77626 36.1517C6.33903 35.8669 5.99626 35.4609 5.79331 34.9835C5.5903 34.5059 5.53697 33.9795 5.64065 33.4716C5.7443 32.9638 5.99982 32.4991 6.37278 32.1356C6.74561 31.7723 7.21907 31.5263 7.73265 31.4267C8.24616 31.3272 8.77857 31.3782 9.26305 31.5737C9.74765 31.7693 10.1639 32.1014 10.4577 32.53C10.7517 32.9587 10.9094 33.4641 10.9094 33.9823M7.74923 36.541V36.5953L8.24922 36.5953C8.59763 36.5953 8.94291 36.5283 9.26535 36.3978C9.58782 36.2673 9.88149 36.0757 10.1292 35.8334C10.377 35.591 10.5739 35.3027 10.708 34.9846C10.8419 34.667 10.9105 34.3264 10.9094 33.9823M7.74923 36.541C7.91334 36.5718 8.08073 36.5874 8.24923 36.5874V36.0953L7.74923 36.541ZM10.9094 33.9823H10.4095L10.9094 33.9804C10.9094 33.981 10.9094 33.9816 10.9094 33.9823ZM13.7263 39.3044C12.2753 40.7184 10.3066 41.5177 8.24923 41.5239C6.19146 41.5177 4.22233 40.718 2.7713 39.3035C1.32052 37.8892 0.505514 35.9757 0.5 33.9816C0.500369 29.3364 4.34407 26.5187 8.43902 24.8385C10.4641 24.0076 12.4948 23.4802 14.0229 23.1605C14.786 23.0009 15.4212 22.8936 15.8645 22.8264C15.9113 22.8193 15.956 22.8126 15.9985 22.8064V33.984C15.9923 35.9777 15.177 37.8906 13.7263 39.3044Z" fill="#AFB1B8" stroke="white"/>
<path d="M25.0894 34.7812H23.4019V36.5244H22.5229V32.2588H25.3003V32.9707H23.4019V34.0723H25.0894V34.7812ZM29.314 34.4883C29.314 34.9082 29.2397 35.2764 29.0913 35.5928C28.9429 35.9092 28.73 36.1533 28.4526 36.3252C28.1772 36.4971 27.8608 36.583 27.5034 36.583C27.1499 36.583 26.8345 36.498 26.5571 36.3281C26.2798 36.1582 26.0649 35.916 25.9126 35.6016C25.7603 35.2852 25.6831 34.9219 25.6812 34.5117V34.3008C25.6812 33.8809 25.7563 33.5117 25.9067 33.1934C26.0591 32.873 26.2729 32.6279 26.5483 32.458C26.8257 32.2861 27.1421 32.2002 27.4976 32.2002C27.853 32.2002 28.1685 32.2861 28.4438 32.458C28.7212 32.6279 28.9351 32.873 29.0854 33.1934C29.2378 33.5117 29.314 33.8799 29.314 34.2979V34.4883ZM28.4233 34.2949C28.4233 33.8477 28.3433 33.5078 28.1831 33.2754C28.0229 33.043 27.7944 32.9268 27.4976 32.9268C27.2026 32.9268 26.9751 33.042 26.8149 33.2725C26.6548 33.501 26.5737 33.8369 26.5718 34.2803V34.4883C26.5718 34.9238 26.6519 35.2617 26.812 35.502C26.9722 35.7422 27.2026 35.8623 27.5034 35.8623C27.7983 35.8623 28.0249 35.7471 28.1831 35.5166C28.3413 35.2842 28.4214 34.9463 28.4233 34.5029V34.2949ZM32.1646 35.4053C32.1646 35.2393 32.106 35.1123 31.9888 35.0244C31.8716 34.9346 31.6606 34.8408 31.356 34.7432C31.0513 34.6436 30.8101 34.5459 30.6323 34.4502C30.1479 34.1885 29.9058 33.8359 29.9058 33.3926C29.9058 33.1621 29.9702 32.957 30.0991 32.7773C30.23 32.5957 30.4165 32.4541 30.6587 32.3525C30.9028 32.251 31.1763 32.2002 31.479 32.2002C31.7837 32.2002 32.0552 32.2559 32.2935 32.3672C32.5317 32.4766 32.7163 32.6318 32.8472 32.833C32.98 33.0342 33.0464 33.2627 33.0464 33.5186H32.1675C32.1675 33.3232 32.106 33.1719 31.9829 33.0645C31.8599 32.9551 31.687 32.9004 31.4644 32.9004C31.2495 32.9004 31.0825 32.9463 30.9634 33.0381C30.8442 33.1279 30.7847 33.2471 30.7847 33.3955C30.7847 33.5342 30.854 33.6504 30.9927 33.7441C31.1333 33.8379 31.3394 33.9258 31.6108 34.0078C32.1108 34.1582 32.4751 34.3447 32.7036 34.5674C32.9321 34.79 33.0464 35.0674 33.0464 35.3994C33.0464 35.7686 32.9067 36.0586 32.6274 36.2695C32.3481 36.4785 31.9722 36.583 31.4995 36.583C31.1714 36.583 30.8726 36.5234 30.603 36.4043C30.3335 36.2832 30.1274 36.1182 29.9849 35.9092C29.8442 35.7002 29.7739 35.458 29.7739 35.1826H30.6558C30.6558 35.6533 30.937 35.8887 31.4995 35.8887C31.7085 35.8887 31.8716 35.8467 31.9888 35.7627C32.106 35.6768 32.1646 35.5576 32.1646 35.4053ZM36.855 32.9707H35.5483V36.5244H34.6694V32.9707H33.3804V32.2588H36.855V32.9707ZM39.9253 34.6758H38.2378V35.8184H40.2183V36.5244H37.3589V32.2588H40.2124V32.9707H38.2378V33.9873H39.9253V34.6758ZM42.313 34.9629H41.6128V36.5244H40.7339V32.2588H42.3188C42.8228 32.2588 43.2114 32.3711 43.4849 32.5957C43.7583 32.8203 43.895 33.1377 43.895 33.5479C43.895 33.8389 43.8315 34.082 43.7046 34.2773C43.5796 34.4707 43.3892 34.625 43.1333 34.7402L44.0562 36.4834V36.5244H43.1128L42.313 34.9629ZM41.6128 34.251H42.3218C42.5425 34.251 42.7134 34.1953 42.8345 34.084C42.9556 33.9707 43.0161 33.8154 43.0161 33.6182C43.0161 33.417 42.9585 33.2588 42.8433 33.1436C42.73 33.0283 42.5552 32.9707 42.3188 32.9707H41.6128V34.251ZM46.939 35.0215V36.5244H46.0601V32.2588H47.7241C48.0444 32.2588 48.3257 32.3174 48.5679 32.4346C48.812 32.5518 48.9995 32.7188 49.1304 32.9355C49.2612 33.1504 49.3267 33.3955 49.3267 33.6709C49.3267 34.0889 49.1831 34.4189 48.896 34.6611C48.6108 34.9014 48.2153 35.0215 47.7095 35.0215H46.939ZM46.939 34.3096H47.7241C47.9565 34.3096 48.1333 34.2549 48.2544 34.1455C48.3774 34.0361 48.439 33.8799 48.439 33.6768C48.439 33.4678 48.3774 33.2988 48.2544 33.1699C48.1313 33.041 47.9614 32.9746 47.7446 32.9707H46.939V34.3096ZM52.4995 34.6758H50.812V35.8184H52.7925V36.5244H49.9331V32.2588H52.7866V32.9707H50.812V33.9873H52.4995V34.6758ZM56.5776 32.9707H55.271V36.5244H54.3921V32.9707H53.103V32.2588H56.5776V32.9707ZM59.6479 34.6758H57.9604V35.8184H59.9409V36.5244H57.0815V32.2588H59.9351V32.9707H57.9604V33.9873H59.6479V34.6758ZM62.0356 34.9629H61.3354V36.5244H60.4565V32.2588H62.0415C62.5454 32.2588 62.9341 32.3711 63.2075 32.5957C63.481 32.8203 63.6177 33.1377 63.6177 33.5479C63.6177 33.8389 63.5542 34.082 63.4272 34.2773C63.3022 34.4707 63.1118 34.625 62.856 34.7402L63.7788 36.4834V36.5244H62.8354L62.0356 34.9629ZM61.3354 34.251H62.0444C62.2651 34.251 62.436 34.1953 62.5571 34.084C62.6782 33.9707 62.7388 33.8154 62.7388 33.6182C62.7388 33.417 62.6812 33.2588 62.5659 33.1436C62.4526 33.0283 62.2778 32.9707 62.0415 32.9707H61.3354V34.251ZM66.5005 35.4053C66.5005 35.2393 66.4419 35.1123 66.3247 35.0244C66.2075 34.9346 65.9966 34.8408 65.6919 34.7432C65.3872 34.6436 65.146 34.5459 64.9683 34.4502C64.4839 34.1885 64.2417 33.8359 64.2417 33.3926C64.2417 33.1621 64.3062 32.957 64.4351 32.7773C64.5659 32.5957 64.7524 32.4541 64.9946 32.3525C65.2388 32.251 65.5122 32.2002 65.8149 32.2002C66.1196 32.2002 66.3911 32.2559 66.6294 32.3672C66.8677 32.4766 67.0522 32.6318 67.1831 32.833C67.3159 33.0342 67.3823 33.2627 67.3823 33.5186H66.5034C66.5034 33.3232 66.4419 33.1719 66.3188 33.0645C66.1958 32.9551 66.0229 32.9004 65.8003 32.9004C65.5854 32.9004 65.4185 32.9463 65.2993 33.0381C65.1802 33.1279 65.1206 33.2471 65.1206 33.3955C65.1206 33.5342 65.1899 33.6504 65.3286 33.7441C65.4692 33.8379 65.6753 33.9258 65.9468 34.0078C66.4468 34.1582 66.811 34.3447 67.0396 34.5674C67.2681 34.79 67.3823 35.0674 67.3823 35.3994C67.3823 35.7686 67.2427 36.0586 66.9634 36.2695C66.6841 36.4785 66.3081 36.583 65.8354 36.583C65.5073 36.583 65.2085 36.5234 64.939 36.4043C64.6694 36.2832 64.4634 36.1182 64.3208 35.9092C64.1802 35.7002 64.1099 35.458 64.1099 35.1826H64.9917C64.9917 35.6533 65.2729 35.8887 65.8354 35.8887C66.0444 35.8887 66.2075 35.8467 66.3247 35.7627C66.4419 35.6768 66.5005 35.5576 66.5005 35.4053Z" fill="#AFB1B8"/>
<path d="M25.0894 34.7812V35.7812H26.0894V34.7812H25.0894ZM23.4019 34.7812V33.7812H22.4019V34.7812H23.4019ZM23.4019 36.5244V37.5244H24.4019V36.5244H23.4019ZM22.5229 36.5244H21.5229V37.5244H22.5229V36.5244ZM22.5229 32.2588V31.2588H21.5229V32.2588H22.5229ZM25.3003 32.2588H26.3003V31.2588H25.3003V32.2588ZM25.3003 32.9707V33.9707H26.3003V32.9707H25.3003ZM23.4019 32.9707V31.9707H22.4019V32.9707H23.4019ZM23.4019 34.0723H22.4019V35.0723H23.4019V34.0723ZM25.0894 34.0723H26.0894V33.0723H25.0894V34.0723ZM25.0894 33.7812H23.4019V35.7812H25.0894V33.7812ZM22.4019 34.7812V36.5244H24.4019V34.7812H22.4019ZM23.4019 35.5244H22.5229V37.5244H23.4019V35.5244ZM23.5229 36.5244V32.2588H21.5229V36.5244H23.5229ZM22.5229 33.2588H25.3003V31.2588H22.5229V33.2588ZM24.3003 32.2588V32.9707H26.3003V32.2588H24.3003ZM25.3003 31.9707H23.4019V33.9707H25.3003V31.9707ZM22.4019 32.9707V34.0723H24.4019V32.9707H22.4019ZM23.4019 35.0723H25.0894V33.0723H23.4019V35.0723ZM24.0894 34.0723V34.7812H26.0894V34.0723H24.0894ZM28.4526 36.3252L27.9259 35.4752L27.9232 35.4769L28.4526 36.3252ZM25.9126 35.6016L25.0116 36.0354L25.0127 36.0376L25.9126 35.6016ZM25.6812 34.5117L24.6811 34.5117L24.6812 34.5165L25.6812 34.5117ZM25.9067 33.1934L25.0037 32.7639L25.0025 32.7662L25.9067 33.1934ZM26.5483 32.458L27.0734 33.309L27.0751 33.308L26.5483 32.458ZM28.4438 32.458L27.9144 33.3064L27.9214 33.3107L28.4438 32.458ZM29.0854 33.1934L28.1802 33.6184L28.1834 33.625L29.0854 33.1934ZM26.8149 33.2725L27.6339 33.8464L27.6361 33.8431L26.8149 33.2725ZM26.5718 34.2803L25.5718 34.2759V34.2803H26.5718ZM28.1831 35.5166L29.0076 36.0825L29.0098 36.0793L28.1831 35.5166ZM28.4233 34.5029L29.4233 34.5073V34.5029H28.4233ZM28.314 34.4883C28.314 34.7905 28.2608 35.0086 28.186 35.1681L29.9966 36.0175C30.2187 35.5441 30.314 35.0259 30.314 34.4883H28.314ZM28.186 35.1681C28.1137 35.3221 28.0266 35.4127 27.9259 35.4752L28.9794 37.1752C29.4333 36.8939 29.772 36.4963 29.9966 36.0175L28.186 35.1681ZM27.9232 35.4769C27.8224 35.5397 27.6932 35.583 27.5034 35.583V37.583C28.0285 37.583 28.5321 37.4544 28.9821 37.1735L27.9232 35.4769ZM27.5034 35.583C27.3177 35.583 27.1861 35.5407 27.0796 35.4754L26.0347 37.1808C26.4829 37.4554 26.9821 37.583 27.5034 37.583V35.583ZM27.0796 35.4754C26.9775 35.4129 26.888 35.3212 26.8125 35.1656L25.0127 36.0376C25.2419 36.5108 25.5821 36.9035 26.0347 37.1808L27.0796 35.4754ZM26.8136 35.1677C26.7357 35.0059 26.6825 34.7933 26.6811 34.507L24.6812 34.5165C24.6837 35.0504 24.7848 35.5644 25.0116 36.0354L26.8136 35.1677ZM26.6812 34.5117V34.3008H24.6812V34.5117H26.6812ZM26.6812 34.3008C26.6812 34.0005 26.7346 33.782 26.8109 33.6205L25.0025 32.7662C24.7781 33.2414 24.6812 33.7613 24.6812 34.3008H26.6812ZM26.8098 33.6229C26.8877 33.4592 26.9777 33.3681 27.0734 33.309L26.0232 31.607C25.5682 31.8877 25.2305 32.2869 25.0037 32.7639L26.8098 33.6229ZM27.0751 33.308C27.1802 33.2429 27.311 33.2002 27.4976 33.2002V31.2002C26.9732 31.2002 26.4712 31.3294 26.0216 31.608L27.0751 33.308ZM27.4976 33.2002C27.6843 33.2002 27.8127 33.2429 27.9144 33.3063L28.9733 31.6097C28.5242 31.3294 28.0218 31.2002 27.4976 31.2002V33.2002ZM27.9214 33.3107C28.0175 33.3695 28.1053 33.4587 28.1803 33.6184L29.9906 32.7684C29.7648 32.2874 29.4249 31.8863 28.9663 31.6053L27.9214 33.3107ZM28.1834 33.625C28.2604 33.786 28.314 34.002 28.314 34.2979H30.314C30.314 33.7578 30.2151 33.2374 29.9875 32.7617L28.1834 33.625ZM28.314 34.2979V34.4883H30.314V34.2979H28.314ZM29.4233 34.2949C29.4233 33.7541 29.331 33.1789 29.0065 32.708L27.3597 33.8428C27.3547 33.8355 27.3719 33.8573 27.3899 33.9339C27.4081 34.0111 27.4233 34.1281 27.4233 34.2949H29.4233ZM29.0065 32.708C28.6486 32.1885 28.1031 31.9268 27.4976 31.9268V33.9268C27.5134 33.9268 27.4851 33.9291 27.4383 33.9053C27.4164 33.8942 27.3974 33.8807 27.3824 33.8673C27.3678 33.8541 27.3608 33.8444 27.3597 33.8428L29.0065 32.708ZM27.4976 31.9268C26.8949 31.9268 26.3518 32.1866 25.9938 32.7018L27.6361 33.8431C27.6349 33.8448 27.6279 33.8545 27.6132 33.8676C27.5982 33.8809 27.5793 33.8943 27.5575 33.9053C27.5108 33.9289 27.4825 33.9268 27.4976 33.9268V31.9268ZM25.996 32.6985C25.6684 33.166 25.5742 33.7392 25.5718 34.2759L27.5718 34.2847C27.5725 34.1199 27.5881 34.0052 27.6061 33.9303C27.6241 33.8561 27.6405 33.8369 27.6338 33.8464L25.996 32.6985ZM25.5718 34.2803V34.4883H27.5718V34.2803H25.5718ZM25.5718 34.4883C25.5718 35.0273 25.6677 35.5883 25.98 36.0567L27.6441 34.9473C27.636 34.9351 27.5718 34.8204 27.5718 34.4883H25.5718ZM25.98 36.0567C26.3347 36.5887 26.885 36.8623 27.5034 36.8623V34.8623C27.4885 34.8623 27.5187 34.8602 27.5672 34.8854C27.5896 34.8971 27.6087 34.9111 27.6234 34.9246C27.6376 34.9377 27.6439 34.947 27.6441 34.9473L25.98 36.0567ZM27.5034 36.8623C28.1064 36.8623 28.651 36.602 29.0076 36.0825L27.3587 34.9507C27.3603 34.9482 27.368 34.9378 27.3833 34.924C27.399 34.9099 27.4187 34.896 27.4412 34.8845C27.4893 34.8601 27.5186 34.8623 27.5034 34.8623V36.8623ZM29.0098 36.0793C29.3276 35.6123 29.421 35.0441 29.4233 34.5073L27.4233 34.4985C27.4226 34.6639 27.4072 34.7805 27.3888 34.8583C27.3705 34.9355 27.3529 34.9591 27.3564 34.9539L29.0098 36.0793ZM29.4233 34.5029V34.2949H27.4233V34.5029H29.4233ZM31.9888 35.0244L31.3803 35.8181L31.3888 35.8244L31.9888 35.0244ZM31.356 34.7432L31.0452 35.6937L31.0507 35.6954L31.356 34.7432ZM30.6323 34.4502L30.157 35.33L30.1582 35.3307L30.6323 34.4502ZM30.0991 32.7773L29.2878 32.1928L29.2866 32.1944L30.0991 32.7773ZM30.6587 32.3525L30.2746 31.4292L30.272 31.4303L30.6587 32.3525ZM32.2935 32.3672L31.8702 33.2732L31.8763 33.276L32.2935 32.3672ZM32.8472 32.833L32.0089 33.3783L32.0126 33.384L32.8472 32.833ZM33.0464 33.5186V34.5186H34.0464V33.5186H33.0464ZM32.1675 33.5186H31.1675V34.5186H32.1675V33.5186ZM31.9829 33.0645L31.3185 33.8119L31.3253 33.8178L31.9829 33.0645ZM30.9634 33.0381L31.5655 33.8366L31.5737 33.8302L30.9634 33.0381ZM30.9927 33.7441L30.4326 34.5726L30.438 34.5762L30.9927 33.7441ZM31.6108 34.0078L31.3216 34.9651L31.3228 34.9654L31.6108 34.0078ZM32.6274 36.2695L33.2266 37.0702L33.2301 37.0675L32.6274 36.2695ZM30.603 36.4043L30.1932 37.3165L30.1987 37.3189L30.603 36.4043ZM29.9849 35.9092L29.1552 36.4675L29.1588 36.4728L29.9849 35.9092ZM29.7739 35.1826V34.1826H28.7739V35.1826H29.7739ZM30.6558 35.1826H31.6558V34.1826H30.6558V35.1826ZM31.9888 35.7627L32.5713 36.5756L32.5801 36.5691L31.9888 35.7627ZM33.1646 35.4053C33.1646 34.9725 32.9938 34.5282 32.5888 34.2244L31.3888 35.8244C31.3213 35.7738 31.2562 35.6989 31.2126 35.6046C31.171 35.5144 31.1646 35.4402 31.1646 35.4053H33.1646ZM32.5972 34.2308C32.3329 34.0281 31.9779 33.8924 31.6612 33.7909L31.0507 35.6954C31.1808 35.7371 31.2738 35.7726 31.3365 35.8005C31.4055 35.8312 31.4089 35.8399 31.3803 35.818L32.5972 34.2308ZM31.6667 33.7927C31.3897 33.7021 31.2107 33.6259 31.1064 33.5697L30.1582 35.3307C30.4094 35.4659 30.7128 35.585 31.0452 35.6937L31.6667 33.7927ZM31.1077 33.5704C30.9662 33.4939 30.9209 33.4367 30.9116 33.4233C30.9092 33.4197 30.9082 33.4177 30.908 33.4173C30.9079 33.417 30.9079 33.417 30.9079 33.417C30.9078 33.4169 30.9074 33.4155 30.9069 33.4121C30.9064 33.4087 30.9058 33.4024 30.9058 33.3926H28.9058C28.9058 34.2976 29.4418 34.9435 30.157 35.33L31.1077 33.5704ZM30.9058 33.3926C30.9058 33.3817 30.9065 33.3746 30.9071 33.3709C30.9074 33.3689 30.9076 33.3676 30.9078 33.3669C30.908 33.3662 30.9081 33.3658 30.9081 33.3657C30.9081 33.3657 30.9081 33.3658 30.908 33.3659C30.908 33.366 30.908 33.3661 30.908 33.3659C30.9081 33.3657 30.9091 33.3639 30.9117 33.3603L29.2866 32.1944C29.0304 32.5515 28.9058 32.9624 28.9058 33.3926H30.9058ZM30.9105 33.3619C30.9162 33.354 30.9434 33.3175 31.0454 33.2747L30.272 31.4303C29.8896 31.5907 29.5438 31.8374 29.2878 32.1928L30.9105 33.3619ZM31.0428 33.2758C31.1488 33.2317 31.2891 33.2002 31.479 33.2002V31.2002C31.0634 31.2002 30.6568 31.2702 30.2746 31.4292L31.0428 33.2758ZM31.479 33.2002C31.6605 33.2002 31.7838 33.2328 31.8702 33.2732L32.7167 31.4612C32.3265 31.2789 31.9069 31.2002 31.479 31.2002V33.2002ZM31.8763 33.276C31.9591 33.3141 31.9907 33.3502 32.0089 33.3783L33.6854 32.2877C33.4419 31.9134 33.1043 31.6391 32.7106 31.4584L31.8763 33.276ZM32.0126 33.384C32.0308 33.4114 32.0464 33.446 32.0464 33.5186H34.0464C34.0464 33.0794 33.9292 32.6569 33.6817 32.2821L32.0126 33.384ZM33.0464 32.5186H32.1675V34.5186H33.0464V32.5186ZM33.1675 33.5186C33.1675 33.0964 33.0238 32.6457 32.6406 32.3111L31.3253 33.8178C31.2689 33.7686 31.223 33.7042 31.1949 33.6351C31.1686 33.5703 31.1675 33.5253 31.1675 33.5186H33.1675ZM32.6473 32.317C32.2851 31.9951 31.8447 31.9004 31.4644 31.9004V33.9004C31.4958 33.9004 31.4898 33.9045 31.4593 33.8948C31.4254 33.8841 31.3723 33.8597 31.3185 33.8119L32.6473 32.317ZM31.4644 31.9004C31.1206 31.9004 30.7081 31.9724 30.353 32.2459L31.5737 33.8302C31.5161 33.8746 31.4659 33.8928 31.443 33.8991C31.4224 33.9047 31.4259 33.9004 31.4644 33.9004V31.9004ZM30.3613 32.2397C29.9931 32.5173 29.7847 32.9313 29.7847 33.3955H31.7847C31.7847 33.4586 31.771 33.5475 31.7238 33.642C31.6766 33.7364 31.6142 33.7998 31.5655 33.8365L30.3613 32.2397ZM29.7847 33.3955C29.7847 33.9378 30.084 34.3369 30.4326 34.5726L31.5527 32.9157C31.5768 32.932 31.6393 32.9802 31.6954 33.0743C31.7556 33.1751 31.7847 33.2891 31.7847 33.3955H29.7847ZM30.438 34.5762C30.6972 34.749 31.0105 34.8711 31.3216 34.9651L31.9001 33.0506C31.6682 32.9805 31.5694 32.9268 31.5474 32.9121L30.438 34.5762ZM31.3228 34.9654C31.7557 35.0956 31.9435 35.2229 32.0057 35.2836L33.4015 33.8512C33.0067 33.4665 32.466 33.2208 31.8989 33.0502L31.3228 34.9654ZM32.0057 35.2836C32.0287 35.3059 32.0341 35.3186 32.0361 35.3233C32.0384 35.3288 32.0464 35.3501 32.0464 35.3994H34.0464C34.0464 34.81 33.8318 34.2704 33.4015 33.8512L32.0057 35.2836ZM32.0464 35.3994C32.0464 35.4286 32.0436 35.4461 32.0419 35.4542C32.0403 35.4619 32.0392 35.4629 32.0406 35.46C32.0421 35.4569 32.0437 35.4549 32.0436 35.455C32.0433 35.4554 32.0383 35.4613 32.0248 35.4715L33.2301 37.0675C33.7752 36.6559 34.0464 36.0621 34.0464 35.3994H32.0464ZM32.0283 35.4689C31.9741 35.5095 31.8319 35.583 31.4995 35.583V37.583C32.1125 37.583 32.7222 37.4476 33.2265 37.0702L32.0283 35.4689ZM31.4995 35.583C31.2948 35.583 31.1358 35.5464 31.0073 35.4897L30.1987 37.3189C30.6094 37.5004 31.048 37.583 31.4995 37.583V35.583ZM31.0128 35.4921C30.8829 35.4337 30.8332 35.3782 30.8109 35.3456L29.1588 36.4728C29.4217 36.8581 29.7841 37.1327 30.1932 37.3165L31.0128 35.4921ZM30.8145 35.3509C30.7953 35.3223 30.7739 35.2785 30.7739 35.1826H28.7739C28.7739 35.6375 28.8932 36.0781 29.1552 36.4675L30.8145 35.3509ZM29.7739 36.1826H30.6558V34.1826H29.7739V36.1826ZM29.6558 35.1826C29.6558 35.6235 29.796 36.1201 30.2249 36.4791C30.6198 36.8095 31.1032 36.8887 31.4995 36.8887V34.8887C31.4254 34.8887 31.3963 34.8806 31.399 34.8813C31.4043 34.8828 31.4507 34.8969 31.5085 34.9452C31.57 34.9968 31.6136 35.0614 31.6375 35.1215C31.659 35.1754 31.6558 35.2028 31.6558 35.1826H29.6558ZM31.4995 36.8887C31.8275 36.8887 32.2234 36.8248 32.5713 36.5755L31.4063 34.9499C31.4635 34.9088 31.5108 34.8935 31.5292 34.8888C31.5459 34.8845 31.5392 34.8887 31.4995 34.8887V36.8887ZM32.5801 36.5691C32.9684 36.2843 33.1646 35.8581 33.1646 35.4053H31.1646C31.1646 35.351 31.1757 35.2643 31.2233 35.1676C31.2716 35.0692 31.3386 34.9994 31.3974 34.9563L32.5801 36.5691ZM36.855 32.9707V33.9707H37.855V32.9707H36.855ZM35.5483 32.9707V31.9707H34.5483V32.9707H35.5483ZM35.5483 36.5244V37.5244H36.5483V36.5244H35.5483ZM34.6694 36.5244H33.6694V37.5244H34.6694V36.5244ZM34.6694 32.9707H35.6694V31.9707H34.6694V32.9707ZM33.3804 32.9707H32.3804V33.9707H33.3804V32.9707ZM33.3804 32.2588V31.2588H32.3804V32.2588H33.3804ZM36.855 32.2588H37.855V31.2588H36.855V32.2588ZM36.855 31.9707H35.5483V33.9707H36.855V31.9707ZM34.5483 32.9707V36.5244H36.5483V32.9707H34.5483ZM35.5483 35.5244H34.6694V37.5244H35.5483V35.5244ZM35.6694 36.5244V32.9707H33.6694V36.5244H35.6694ZM34.6694 31.9707H33.3804V33.9707H34.6694V31.9707ZM34.3804 32.9707V32.2588H32.3804V32.9707H34.3804ZM33.3804 33.2588H36.855V31.2588H33.3804V33.2588ZM35.855 32.2588V32.9707H37.855V32.2588H35.855ZM39.9253 34.6758V35.6758H40.9253V34.6758H39.9253ZM38.2378 34.6758V33.6758H37.2378V34.6758H38.2378ZM38.2378 35.8184H37.2378V36.8184H38.2378V35.8184ZM40.2183 35.8184H41.2183V34.8184H40.2183V35.8184ZM40.2183 36.5244V37.5244H41.2183V36.5244H40.2183ZM37.3589 36.5244H36.3589V37.5244H37.3589V36.5244ZM37.3589 32.2588V31.2588H36.3589V32.2588H37.3589ZM40.2124 32.2588H41.2124V31.2588H40.2124V32.2588ZM40.2124 32.9707V33.9707H41.2124V32.9707H40.2124ZM38.2378 32.9707V31.9707H37.2378V32.9707H38.2378ZM38.2378 33.9873H37.2378V34.9873H38.2378V33.9873ZM39.9253 33.9873H40.9253V32.9873H39.9253V33.9873ZM39.9253 33.6758H38.2378V35.6758H39.9253V33.6758ZM37.2378 34.6758V35.8184H39.2378V34.6758H37.2378ZM38.2378 36.8184H40.2183V34.8184H38.2378V36.8184ZM39.2183 35.8184V36.5244H41.2183V35.8184H39.2183ZM40.2183 35.5244H37.3589V37.5244H40.2183V35.5244ZM38.3589 36.5244V32.2588H36.3589V36.5244H38.3589ZM37.3589 33.2588H40.2124V31.2588H37.3589V33.2588ZM39.2124 32.2588V32.9707H41.2124V32.2588H39.2124ZM40.2124 31.9707H38.2378V33.9707H40.2124V31.9707ZM37.2378 32.9707V33.9873H39.2378V32.9707H37.2378ZM38.2378 34.9873H39.9253V32.9873H38.2378V34.9873ZM38.9253 33.9873V34.6758H40.9253V33.9873H38.9253ZM42.313 34.9629L43.203 34.507L42.9243 33.9629H42.313V34.9629ZM41.6128 34.9629V33.9629H40.6128V34.9629H41.6128ZM41.6128 36.5244V37.5244H42.6128V36.5244H41.6128ZM40.7339 36.5244H39.7339V37.5244H40.7339V36.5244ZM40.7339 32.2588V31.2588H39.7339V32.2588H40.7339ZM43.7046 34.2773L42.8661 33.7324L42.8648 33.7344L43.7046 34.2773ZM43.1333 34.7402L42.7226 33.8284L41.7508 34.2661L42.2495 35.2081L43.1333 34.7402ZM44.0562 36.4834H45.0562V36.235L44.9399 36.0155L44.0562 36.4834ZM44.0562 36.5244V37.5244H45.0562V36.5244H44.0562ZM43.1128 36.5244L42.2227 36.9803L42.5014 37.5244H43.1128V36.5244ZM41.6128 34.251H40.6128V35.251H41.6128V34.251ZM42.8345 34.084L43.5113 34.8202L43.5176 34.8143L42.8345 34.084ZM42.8433 33.1436L42.1301 33.8446L42.1362 33.8507L42.8433 33.1436ZM41.6128 32.9707V31.9707H40.6128V32.9707H41.6128ZM42.313 33.9629H41.6128V35.9629H42.313V33.9629ZM40.6128 34.9629V36.5244H42.6128V34.9629H40.6128ZM41.6128 35.5244H40.7339V37.5244H41.6128V35.5244ZM41.7339 36.5244V32.2588H39.7339V36.5244H41.7339ZM40.7339 33.2588H42.3188V31.2588H40.7339V33.2588ZM42.3188 33.2588C42.6875 33.2588 42.818 33.3421 42.8501 33.3684L44.1196 31.823C43.6048 31.4001 42.958 31.2588 42.3188 31.2588V33.2588ZM42.8501 33.3684C42.8666 33.382 42.8704 33.3893 42.8741 33.3978C42.8795 33.4105 42.895 33.4538 42.895 33.5479H44.895C44.895 32.8917 44.6625 32.2689 44.1196 31.823L42.8501 33.3684ZM42.895 33.5479C42.895 33.6212 42.887 33.6686 42.8798 33.6959C42.873 33.7219 42.8667 33.7314 42.8661 33.7324L44.543 34.8223C44.7989 34.4286 44.895 33.9841 44.895 33.5479H42.895ZM42.8648 33.7344C42.8632 33.7369 42.857 33.7461 42.8385 33.7611C42.819 33.7769 42.7832 33.8012 42.7226 33.8284L43.544 35.652C43.9367 35.4751 44.294 35.2076 44.5444 34.8202L42.8648 33.7344ZM42.2495 35.2081L43.1724 36.9513L44.9399 36.0155L44.0171 34.2723L42.2495 35.2081ZM43.0562 36.4834V36.5244H45.0562V36.4834H43.0562ZM44.0562 35.5244H43.1128V37.5244H44.0562V35.5244ZM44.0028 36.0685L43.203 34.507L41.4229 35.4188L42.2227 36.9803L44.0028 36.0685ZM41.6128 35.251H42.3218V33.251H41.6128V35.251ZM42.3218 35.251C42.706 35.251 43.1502 35.1521 43.5113 34.8202L42.1577 33.3478C42.2122 33.2977 42.2677 33.2708 42.3058 33.2584C42.3401 33.2472 42.35 33.251 42.3218 33.251V35.251ZM43.5176 34.8143C43.879 34.4762 44.0161 34.0353 44.0161 33.6182H42.0161C42.0161 33.6149 42.0167 33.5766 42.039 33.5193C42.0628 33.4583 42.102 33.3998 42.1513 33.3537L43.5176 34.8143ZM44.0161 33.6182C44.0161 33.2177 43.8951 32.7812 43.5504 32.4364L42.1362 33.8507C42.0871 33.8016 42.0527 33.7442 42.0333 33.6908C42.0152 33.6412 42.0161 33.6122 42.0161 33.6182H44.0161ZM43.5564 32.4425C43.183 32.0627 42.6992 31.9707 42.3188 31.9707V33.9707C42.3593 33.9707 42.3518 33.9761 42.3142 33.9637C42.2715 33.9496 42.1998 33.9155 42.1301 33.8446L43.5564 32.4425ZM42.3188 31.9707H41.6128V33.9707H42.3188V31.9707ZM40.6128 32.9707V34.251H42.6128V32.9707H40.6128ZM46.939 35.0215V34.0215H45.939V35.0215H46.939ZM46.939 36.5244V37.5244H47.939V36.5244H46.939ZM46.0601 36.5244H45.0601V37.5244H46.0601V36.5244ZM46.0601 32.2588V31.2588H45.0601V32.2588H46.0601ZM48.5679 32.4346L48.1323 33.3347L48.1351 33.3361L48.5679 32.4346ZM49.1304 32.9355L48.2742 33.4523L48.2763 33.4557L49.1304 32.9355ZM48.896 34.6611L49.5403 35.4259L49.5408 35.4255L48.896 34.6611ZM46.939 34.3096H45.939V35.3096H46.939V34.3096ZM48.2544 34.1455L47.59 33.3981L47.5841 33.4034L48.2544 34.1455ZM47.7446 32.9707L47.7626 31.9709L47.7536 31.9707H47.7446V32.9707ZM46.939 32.9707V31.9707H45.939V32.9707H46.939ZM45.939 35.0215V36.5244H47.939V35.0215H45.939ZM46.939 35.5244H46.0601V37.5244H46.939V35.5244ZM47.0601 36.5244V32.2588H45.0601V36.5244H47.0601ZM46.0601 33.2588H47.7241V31.2588H46.0601V33.2588ZM47.7241 33.2588C47.922 33.2588 48.0494 33.2946 48.1323 33.3347L49.0034 31.5344C48.602 31.3402 48.1668 31.2588 47.7241 31.2588V33.2588ZM48.1351 33.3361C48.2165 33.3751 48.2511 33.414 48.2742 33.4523L49.9865 32.4188C49.7479 32.0235 49.4076 31.7284 49.0006 31.533L48.1351 33.3361ZM48.2763 33.4557C48.3028 33.4992 48.3267 33.561 48.3267 33.6709H50.3267C50.3267 33.23 50.2197 32.8016 49.9844 32.4154L48.2763 33.4557ZM48.3267 33.6709C48.3267 33.8316 48.286 33.8675 48.2512 33.8968L49.5408 35.4255C50.0803 34.9704 50.3267 34.3461 50.3267 33.6709H48.3267ZM48.2517 33.8964C48.2022 33.938 48.0638 34.0215 47.7095 34.0215V36.0215C48.3669 36.0215 49.0195 35.8647 49.5403 35.4259L48.2517 33.8964ZM47.7095 34.0215H46.939V36.0215H47.7095V34.0215ZM46.939 35.3096H47.7241V33.3096H46.939V35.3096ZM47.7241 35.3096C48.0998 35.3096 48.5548 35.2217 48.9247 34.8876L47.5841 33.4034C47.6451 33.3483 47.7035 33.3231 47.7354 33.3132C47.7636 33.3045 47.7646 33.3096 47.7241 33.3096V35.3096ZM48.9188 34.8929C49.3039 34.5506 49.439 34.0933 49.439 33.6768H47.439C47.439 33.6785 47.4386 33.6401 47.4624 33.5799C47.4879 33.5149 47.5317 33.4499 47.59 33.3981L48.9188 34.8929ZM49.439 33.6768C49.439 33.2581 49.3087 32.8261 48.9778 32.4794L47.531 33.8604C47.4963 33.824 47.4693 33.7796 47.4532 33.7355C47.4381 33.6941 47.439 33.6704 47.439 33.6768H49.439ZM48.9778 32.4794C48.6316 32.1169 48.1847 31.9785 47.7626 31.9709L47.7266 33.9705C47.7383 33.9708 47.7147 33.972 47.6707 33.9548C47.623 33.9362 47.5727 33.9041 47.531 33.8604L48.9778 32.4794ZM47.7446 31.9707H46.939V33.9707H47.7446V31.9707ZM45.939 32.9707V34.3096H47.939V32.9707H45.939ZM52.4995 34.6758V35.6758H53.4995V34.6758H52.4995ZM50.812 34.6758V33.6758H49.812V34.6758H50.812ZM50.812 35.8184H49.812V36.8184H50.812V35.8184ZM52.7925 35.8184H53.7925V34.8184H52.7925V35.8184ZM52.7925 36.5244V37.5244H53.7925V36.5244H52.7925ZM49.9331 36.5244H48.9331V37.5244H49.9331V36.5244ZM49.9331 32.2588V31.2588H48.9331V32.2588H49.9331ZM52.7866 32.2588H53.7866V31.2588H52.7866V32.2588ZM52.7866 32.9707V33.9707H53.7866V32.9707H52.7866ZM50.812 32.9707V31.9707H49.812V32.9707H50.812ZM50.812 33.9873H49.812V34.9873H50.812V33.9873ZM52.4995 33.9873H53.4995V32.9873H52.4995V33.9873ZM52.4995 33.6758H50.812V35.6758H52.4995V33.6758ZM49.812 34.6758V35.8184H51.812V34.6758H49.812ZM50.812 36.8184H52.7925V34.8184H50.812V36.8184ZM51.7925 35.8184V36.5244H53.7925V35.8184H51.7925ZM52.7925 35.5244H49.9331V37.5244H52.7925V35.5244ZM50.9331 36.5244V32.2588H48.9331V36.5244H50.9331ZM49.9331 33.2588H52.7866V31.2588H49.9331V33.2588ZM51.7866 32.2588V32.9707H53.7866V32.2588H51.7866ZM52.7866 31.9707H50.812V33.9707H52.7866V31.9707ZM49.812 32.9707V33.9873H51.812V32.9707H49.812ZM50.812 34.9873H52.4995V32.9873H50.812V34.9873ZM51.4995 33.9873V34.6758H53.4995V33.9873H51.4995ZM56.5776 32.9707V33.9707H57.5776V32.9707H56.5776ZM55.271 32.9707V31.9707H54.271V32.9707H55.271ZM55.271 36.5244V37.5244H56.271V36.5244H55.271ZM54.3921 36.5244H53.3921V37.5244H54.3921V36.5244ZM54.3921 32.9707H55.3921V31.9707H54.3921V32.9707ZM53.103 32.9707H52.103V33.9707H53.103V32.9707ZM53.103 32.2588V31.2588H52.103V32.2588H53.103ZM56.5776 32.2588H57.5776V31.2588H56.5776V32.2588ZM56.5776 31.9707H55.271V33.9707H56.5776V31.9707ZM54.271 32.9707V36.5244H56.271V32.9707H54.271ZM55.271 35.5244H54.3921V37.5244H55.271V35.5244ZM55.3921 36.5244V32.9707H53.3921V36.5244H55.3921ZM54.3921 31.9707H53.103V33.9707H54.3921V31.9707ZM54.103 32.9707V32.2588H52.103V32.9707H54.103ZM53.103 33.2588H56.5776V31.2588H53.103V33.2588ZM55.5776 32.2588V32.9707H57.5776V32.2588H55.5776ZM59.6479 34.6758V35.6758H60.6479V34.6758H59.6479ZM57.9604 34.6758V33.6758H56.9604V34.6758H57.9604ZM57.9604 35.8184H56.9604V36.8184H57.9604V35.8184ZM59.9409 35.8184H60.9409V34.8184H59.9409V35.8184ZM59.9409 36.5244V37.5244H60.9409V36.5244H59.9409ZM57.0815 36.5244H56.0815V37.5244H57.0815V36.5244ZM57.0815 32.2588V31.2588H56.0815V32.2588H57.0815ZM59.9351 32.2588H60.9351V31.2588H59.9351V32.2588ZM59.9351 32.9707V33.9707H60.9351V32.9707H59.9351ZM57.9604 32.9707V31.9707H56.9604V32.9707H57.9604ZM57.9604 33.9873H56.9604V34.9873H57.9604V33.9873ZM59.6479 33.9873H60.6479V32.9873H59.6479V33.9873ZM59.6479 33.6758H57.9604V35.6758H59.6479V33.6758ZM56.9604 34.6758V35.8184H58.9604V34.6758H56.9604ZM57.9604 36.8184H59.9409V34.8184H57.9604V36.8184ZM58.9409 35.8184V36.5244H60.9409V35.8184H58.9409ZM59.9409 35.5244H57.0815V37.5244H59.9409V35.5244ZM58.0815 36.5244V32.2588H56.0815V36.5244H58.0815ZM57.0815 33.2588H59.9351V31.2588H57.0815V33.2588ZM58.9351 32.2588V32.9707H60.9351V32.2588H58.9351ZM59.9351 31.9707H57.9604V33.9707H59.9351V31.9707ZM56.9604 32.9707V33.9873H58.9604V32.9707H56.9604ZM57.9604 34.9873H59.6479V32.9873H57.9604V34.9873ZM58.6479 33.9873V34.6758H60.6479V33.9873H58.6479ZM62.0356 34.9629L62.9257 34.507L62.647 33.9629H62.0356V34.9629ZM61.3354 34.9629V33.9629H60.3354V34.9629H61.3354ZM61.3354 36.5244V37.5244H62.3354V36.5244H61.3354ZM60.4565 36.5244H59.4565V37.5244H60.4565V36.5244ZM60.4565 32.2588V31.2588H59.4565V32.2588H60.4565ZM63.4272 34.2773L62.5888 33.7324L62.5874 33.7344L63.4272 34.2773ZM62.856 34.7402L62.4453 33.8284L61.4735 34.2661L61.9722 35.2081L62.856 34.7402ZM63.7788 36.4834H64.7788V36.235L64.6626 36.0155L63.7788 36.4834ZM63.7788 36.5244V37.5244H64.7788V36.5244H63.7788ZM62.8354 36.5244L61.9454 36.9803L62.2241 37.5244H62.8354V36.5244ZM61.3354 34.251H60.3354V35.251H61.3354V34.251ZM62.5571 34.084L63.234 34.8202L63.2403 34.8143L62.5571 34.084ZM62.5659 33.1436L61.8528 33.8446L61.8588 33.8507L62.5659 33.1436ZM61.3354 32.9707V31.9707H60.3354V32.9707H61.3354ZM62.0356 33.9629H61.3354V35.9629H62.0356V33.9629ZM60.3354 34.9629V36.5244H62.3354V34.9629H60.3354ZM61.3354 35.5244H60.4565V37.5244H61.3354V35.5244ZM61.4565 36.5244V32.2588H59.4565V36.5244H61.4565ZM60.4565 33.2588H62.0415V31.2588H60.4565V33.2588ZM62.0415 33.2588C62.4102 33.2588 62.5407 33.3421 62.5728 33.3684L63.8423 31.823C63.3275 31.4001 62.6807 31.2588 62.0415 31.2588V33.2588ZM62.5728 33.3684C62.5893 33.382 62.593 33.3893 62.5967 33.3978C62.6022 33.4105 62.6177 33.4538 62.6177 33.5479H64.6177C64.6177 32.8917 64.3851 32.2689 63.8423 31.823L62.5728 33.3684ZM62.6177 33.5479C62.6177 33.6212 62.6096 33.6686 62.6025 33.6959C62.5957 33.7219 62.5894 33.7314 62.5888 33.7324L64.2657 34.8223C64.5216 34.4286 64.6177 33.9841 64.6177 33.5479H62.6177ZM62.5874 33.7344C62.5858 33.7369 62.5797 33.7461 62.5611 33.7611C62.5416 33.7769 62.5059 33.8012 62.4453 33.8284L63.2666 35.652C63.6594 35.4751 64.0166 35.2076 64.267 34.8202L62.5874 33.7344ZM61.9722 35.2081L62.895 36.9513L64.6626 36.0155L63.7397 34.2723L61.9722 35.2081ZM62.7788 36.4834V36.5244H64.7788V36.4834H62.7788ZM63.7788 35.5244H62.8354V37.5244H63.7788V35.5244ZM63.7255 36.0685L62.9257 34.507L61.1456 35.4188L61.9454 36.9803L63.7255 36.0685ZM61.3354 35.251H62.0444V33.251H61.3354V35.251ZM62.0444 35.251C62.4286 35.251 62.8728 35.1521 63.2339 34.8202L61.8803 33.3478C61.9348 33.2977 61.9903 33.2708 62.0284 33.2584C62.0628 33.2472 62.0727 33.251 62.0444 33.251V35.251ZM63.2403 34.8143C63.6016 34.4762 63.7388 34.0353 63.7388 33.6182H61.7388C61.7388 33.6149 61.7393 33.5766 61.7617 33.5193C61.7855 33.4583 61.8247 33.3998 61.874 33.3537L63.2403 34.8143ZM63.7388 33.6182C63.7388 33.2177 63.6178 32.7812 63.273 32.4364L61.8588 33.8507C61.8098 33.8016 61.7754 33.7442 61.7559 33.6908C61.7379 33.6412 61.7388 33.6122 61.7388 33.6182H63.7388ZM63.279 32.4425C62.9057 32.0627 62.4219 31.9707 62.0415 31.9707V33.9707C62.0819 33.9707 62.0744 33.9761 62.0368 33.9637C61.9941 33.9496 61.9225 33.9155 61.8528 33.8446L63.279 32.4425ZM62.0415 31.9707H61.3354V33.9707H62.0415V31.9707ZM60.3354 32.9707V34.251H62.3354V32.9707H60.3354ZM66.3247 35.0244L65.7162 35.8181L65.7247 35.8244L66.3247 35.0244ZM65.6919 34.7432L65.3812 35.6937L65.3867 35.6954L65.6919 34.7432ZM64.9683 34.4502L64.4929 35.33L64.4942 35.3307L64.9683 34.4502ZM64.4351 32.7773L63.6237 32.1928L63.6225 32.1944L64.4351 32.7773ZM64.9946 32.3525L64.6105 31.4292L64.6079 31.4303L64.9946 32.3525ZM66.6294 32.3672L66.2061 33.2732L66.2122 33.276L66.6294 32.3672ZM67.1831 32.833L66.3448 33.3783L66.3486 33.384L67.1831 32.833ZM67.3823 33.5186V34.5186H68.3823V33.5186H67.3823ZM66.5034 33.5186H65.5034V34.5186H66.5034V33.5186ZM66.3188 33.0645L65.6545 33.8119L65.6612 33.8178L66.3188 33.0645ZM65.2993 33.0381L65.9014 33.8366L65.9097 33.8302L65.2993 33.0381ZM65.3286 33.7441L64.7685 34.5726L64.7739 34.5762L65.3286 33.7441ZM65.9468 34.0078L65.6575 34.9651L65.6587 34.9654L65.9468 34.0078ZM66.9634 36.2695L67.5625 37.0702L67.5661 37.0675L66.9634 36.2695ZM64.939 36.4043L64.5291 37.3165L64.5347 37.3189L64.939 36.4043ZM64.3208 35.9092L63.4911 36.4675L63.4947 36.4728L64.3208 35.9092ZM64.1099 35.1826V34.1826H63.1099V35.1826H64.1099ZM64.9917 35.1826H65.9917V34.1826H64.9917V35.1826ZM66.3247 35.7627L66.9073 36.5756L66.9161 36.5691L66.3247 35.7627ZM67.5005 35.4053C67.5005 34.9725 67.3298 34.5282 66.9247 34.2244L65.7247 35.8244C65.6572 35.7738 65.5921 35.6989 65.5486 35.6046C65.5069 35.5144 65.5005 35.4402 65.5005 35.4053H67.5005ZM66.9331 34.2308C66.6688 34.0281 66.3138 33.8924 65.9971 33.7909L65.3867 35.6954C65.5167 35.7371 65.6097 35.7726 65.6725 35.8005C65.7415 35.8312 65.7448 35.8399 65.7163 35.818L66.9331 34.2308ZM66.0026 33.7927C65.7257 33.7021 65.5467 33.6259 65.4424 33.5697L64.4942 35.3307C64.7453 35.4659 65.0488 35.585 65.3812 35.6937L66.0026 33.7927ZM65.4436 33.5704C65.3021 33.4939 65.2568 33.4367 65.2476 33.4233C65.2451 33.4197 65.2442 33.4177 65.244 33.4173C65.2438 33.417 65.2438 33.417 65.2438 33.417C65.2438 33.4169 65.2433 33.4155 65.2429 33.4121C65.2424 33.4087 65.2417 33.4024 65.2417 33.3926H63.2417C63.2417 34.2976 63.7777 34.9435 64.4929 35.33L65.4436 33.5704ZM65.2417 33.3926C65.2417 33.3817 65.2425 33.3746 65.243 33.3709C65.2433 33.3689 65.2436 33.3676 65.2437 33.3669C65.2439 33.3662 65.244 33.3658 65.244 33.3657C65.244 33.3657 65.244 33.3658 65.244 33.3659C65.2439 33.366 65.2439 33.3661 65.244 33.3659C65.2441 33.3657 65.245 33.3639 65.2476 33.3603L63.6225 32.1944C63.3663 32.5515 63.2417 32.9624 63.2417 33.3926H65.2417ZM65.2464 33.3619C65.2521 33.354 65.2793 33.3175 65.3814 33.2747L64.6079 31.4303C64.2256 31.5907 63.8797 31.8374 63.6237 32.1928L65.2464 33.3619ZM65.3787 33.2758C65.4848 33.2317 65.6251 33.2002 65.8149 33.2002V31.2002C65.3993 31.2002 64.9928 31.2702 64.6105 31.4292L65.3787 33.2758ZM65.8149 33.2002C65.9964 33.2002 66.1198 33.2328 66.2061 33.2732L67.0527 31.4612C66.6624 31.2789 66.2428 31.2002 65.8149 31.2002V33.2002ZM66.2122 33.276C66.2951 33.3141 66.3266 33.3502 66.3448 33.3783L68.0214 32.2877C67.7779 31.9134 67.4403 31.6391 67.0466 31.4584L66.2122 33.276ZM66.3486 33.384C66.3667 33.4114 66.3823 33.446 66.3823 33.5186H68.3823C68.3823 33.0794 68.2651 32.6569 68.0176 32.2821L66.3486 33.384ZM67.3823 32.5186H66.5034V34.5186H67.3823V32.5186ZM67.5034 33.5186C67.5034 33.0964 67.3597 32.6457 66.9765 32.3111L65.6612 33.8178C65.6049 33.7686 65.559 33.7042 65.5309 33.6351C65.5045 33.5703 65.5034 33.5253 65.5034 33.5186H67.5034ZM66.9832 32.317C66.621 31.9951 66.1807 31.9004 65.8003 31.9004V33.9004C65.8317 33.9004 65.8257 33.9045 65.7953 33.8948C65.7613 33.8841 65.7083 33.8597 65.6545 33.8119L66.9832 32.317ZM65.8003 31.9004C65.4566 31.9004 65.0441 31.9724 64.689 32.2459L65.9097 33.8302C65.852 33.8746 65.8019 33.8928 65.7789 33.8991C65.7583 33.9047 65.7619 33.9004 65.8003 33.9004V31.9004ZM64.6972 32.2397C64.3291 32.5173 64.1206 32.9313 64.1206 33.3955H66.1206C66.1206 33.4586 66.107 33.5475 66.0597 33.642C66.0125 33.7364 65.9501 33.7998 65.9014 33.8365L64.6972 32.2397ZM64.1206 33.3955C64.1206 33.9378 64.4199 34.3369 64.7685 34.5726L65.8887 32.9157C65.9128 32.932 65.9752 32.9802 66.0314 33.0743C66.0915 33.1751 66.1206 33.2891 66.1206 33.3955H64.1206ZM64.7739 34.5762C65.0332 34.749 65.3464 34.8711 65.6575 34.9651L66.236 33.0506C66.0041 32.9805 65.9053 32.9268 65.8833 32.9121L64.7739 34.5762ZM65.6587 34.9654C66.0916 35.0956 66.2794 35.2229 66.3417 35.2836L67.7374 33.8512C67.3427 33.4665 66.8019 33.2208 66.2348 33.0502L65.6587 34.9654ZM66.3417 35.2836C66.3646 35.3059 66.3701 35.3186 66.372 35.3233C66.3743 35.3288 66.3823 35.3501 66.3823 35.3994H68.3823C68.3823 34.81 68.1677 34.2704 67.7374 33.8512L66.3417 35.2836ZM66.3823 35.3994C66.3823 35.4286 66.3796 35.4461 66.3779 35.4542C66.3762 35.4619 66.3752 35.4629 66.3766 35.46C66.3781 35.4569 66.3796 35.4549 66.3796 35.455C66.3792 35.4554 66.3743 35.4613 66.3607 35.4715L67.5661 37.0675C68.1111 36.6559 68.3823 36.0621 68.3823 35.3994H66.3823ZM66.3643 35.4689C66.31 35.5095 66.1678 35.583 65.8354 35.583V37.583C66.4484 37.583 67.0581 37.4476 67.5625 37.0702L66.3643 35.4689ZM65.8354 35.583C65.6307 35.583 65.4717 35.5464 65.3433 35.4897L64.5347 37.3189C64.9453 37.5004 65.3839 37.583 65.8354 37.583V35.583ZM65.3488 35.4921C65.2188 35.4337 65.1691 35.3782 65.1469 35.3456L63.4947 36.4728C63.7577 36.8581 64.1201 37.1327 64.5291 37.3165L65.3488 35.4921ZM65.1505 35.3509C65.1312 35.3223 65.1099 35.2785 65.1099 35.1826H63.1099C63.1099 35.6375 63.2291 36.0781 63.4911 36.4675L65.1505 35.3509ZM64.1099 36.1826H64.9917V34.1826H64.1099V36.1826ZM63.9917 35.1826C63.9917 35.6235 64.1319 36.1201 64.5609 36.4791C64.9557 36.8095 65.4392 36.8887 65.8354 36.8887V34.8887C65.7613 34.8887 65.7323 34.8806 65.735 34.8813C65.7402 34.8828 65.7866 34.8969 65.8444 34.9452C65.9059 34.9968 65.9495 35.0614 65.9734 35.1215C65.9949 35.1754 65.9917 35.2028 65.9917 35.1826H63.9917ZM65.8354 36.8887C66.1634 36.8887 66.5593 36.8248 66.9072 36.5755L65.7422 34.9499C65.7994 34.9088 65.8468 34.8935 65.8652 34.8888C65.8818 34.8845 65.8751 34.8887 65.8354 34.8887V36.8887ZM66.9161 36.5691C67.3044 36.2843 67.5005 35.8581 67.5005 35.4053H65.5005C65.5005 35.351 65.5116 35.2643 65.5592 35.1676C65.6075 35.0692 65.6746 34.9994 65.7333 34.9563L66.9161 36.5691Z" fill="white"/>
</svg>
